<svg xmlns="http://www.w3.org/2000/svg" viewBox="0 0 512 512" width="512" height="512"><g transform="translate(46.08000000000001,168.57199359757817) scale(0.38065749112921005)"><g transform="scale(1.8794634422822596) translate(-508.277344,-198.117188)"><path fill-rule="nonzero" fill="#000000" d="M 715.609375 347.902344 L 671.65625 274.828125 L 715.007812 198.125 L 691.1875 198.117188 L 648.042969 274.976562 L 692.140625 347.917969 Z M 715.609375 347.902344 "/><path fill-rule="nonzero" fill="#FF0F00" d="M 648.097656 285.1875 L 683.0625 342.808594 L 615.988281 342.808594 Z M 648.097656 285.1875 "/><path fill-rule="nonzero" fill="#000000" d="M 636.125 255.394531 L 595.867188 327.300781 L 508.277344 327.363281 L 519.410156 347.804688 L 607.550781 347.824219 L 648.109375 275.046875 Z M 636.125 255.394531 "/><path fill-rule="nonzero" fill="#000000" d="M 596.371094 367.9375 L 680.230469 367.925781 L 725.191406 442.523438 L 737.199219 422.226562 L 692.121094 347.824219 L 607.566406 347.824219 Z M 596.371094 367.9375 "/><path fill-rule="nonzero" fill="#000000" d="M 583.828125 281.929688 L 599.9375 310.699219 L 592.960938 322.429688 L 578.914062 322.246094 L 562.898438 293.652344 Z M 583.828125 281.929688 "/><path fill-rule="nonzero" fill="#000000" d="M 717.011719 286.253906 L 684.042969 286.226562 L 677.226562 274.402344 L 684.261719 262.242188 L 717.03125 262.265625 Z M 717.011719 286.253906 "/><path fill-rule="nonzero" fill="#000000" d="M 647.691406 401.796875 L 663.757812 373.003906 L 677.40625 372.804688 L 684.605469 384.863281 L 668.640625 413.484375 Z M 647.691406 401.796875 "/></g><g transform="translate(512.9337653504627,0) scale(0.5503731343283582) translate(-67,-40)"><path fill-rule="evenodd" fill="#000000" d="M 190.00,314.50 66.50,314.00 67.00,39.50 181.00,39.50 182.00,40.50 200.00,41.50 223.00,46.50 240.00,52.50 252.00,58.50 268.00,69.50 285.50,87.00 299.50,110.00 306.50,130.00 310.50,150.00 311.50,190.00 310.50,191.00 309.50,206.00 305.50,224.00 300.50,238.00 291.50,256.00 281.50,270.00 266.00,285.50 247.00,298.50 229.00,306.50 216.00,310.50 200.00,313.50 191.00,313.50 190.00,314.50 Z M 606.00,314.50 550.00,314.50 525.00,243.50 421.00,243.50 396.00,314.50 338.50,314.00 439.00,39.50 507.50,40.00 525.50,92.00 527.50,95.00 529.50,103.00 531.50,106.00 549.50,158.00 551.50,161.00 557.50,180.00 559.50,183.00 577.50,235.00 587.50,260.00 601.50,301.00 603.50,304.00 606.50,313.00 606.00,314.50 Z M 768.00,314.50 710.50,314.00 710.50,85.00 623.00,84.50 623.00,39.50 857.50,40.00 857.00,84.50 768.50,85.00 768.00,314.50 Z M 1138.00,314.50 1082.00,314.50 1057.00,243.50 953.00,243.50 928.00,314.50 870.50,314.00 971.00,39.50 1039.50,40.00 1041.50,48.00 1043.50,51.00 1053.50,81.00 1055.50,84.00 1061.50,103.00 1063.50,106.00 1069.50,125.00 1071.50,128.00 1089.50,180.00 1107.50,227.00 1133.50,301.00 1135.50,304.00 1138.50,313.00 1138.00,314.50 Z M 512.50,200.00 492.50,141.00 490.50,138.00 473.00,82.50 462.50,117.00 460.50,120.00 433.50,200.00 512.50,200.00 Z M 1044.50,200.00 1024.50,141.00 1022.50,138.00 1005.00,82.50 994.50,117.00 992.50,120.00 965.50,200.00 1044.50,200.00 Z M 186.50,269.00 202.00,265.50 219.00,256.50 232.50,244.00 243.50,227.00 249.50,211.00 252.50,196.00 252.50,189.00 253.50,188.00 253.50,162.00 252.50,161.00 251.50,148.00 247.50,134.00 242.50,123.00 232.50,109.00 219.00,97.50 210.00,92.50 196.00,87.50 181.00,84.50 124.00,84.50 123.50,269.00 186.50,269.00 Z"/></g><g transform="translate(512.9337653504627,184.35261194029852) translate(-67,-40)"><path fill-rule="evenodd" fill="#000000" d="M 271.00,314.50 66.50,314.00 67.00,39.50 123.50,40.00 123.50,269.00 271.00,269.50 271.00,314.50 Z M 545.00,314.50 478.00,314.50 476.50,313.00 473.50,306.00 359.00,104.50 358.50,112.00 359.50,113.00 359.50,123.00 360.50,124.00 360.50,137.00 361.50,138.00 361.50,314.00 310.50,314.00 311.00,39.50 376.50,40.00 497.00,251.50 495.50,223.00 494.50,222.00 494.50,40.00 545.50,40.00 545.00,314.50 Z M 656.00,314.50 599.50,314.00 600.00,39.50 656.50,40.00 656.00,314.50 Z"/></g></g></svg>
