<svg xmlns="http://www.w3.org/2000/svg" viewBox="35 160 190 195"><g transform="translate(46.08000000000001,168.57199359757817) scale(0.38065749112921005)"><g transform="scale(1.8794634422822596) translate(-508.277344,-198.117188)"><path fill-rule="nonzero" fill="#000000" d="M 715.609375 347.902344 L 671.65625 274.828125 L 715.007812 198.125 L 691.1875 198.117188 L 648.042969 274.976562 L 692.140625 347.917969 Z M 715.609375 347.902344 "/><path fill-rule="nonzero" fill="#FF0F00" d="M 648.097656 285.1875 L 683.0625 342.808594 L 615.988281 342.808594 Z M 648.097656 285.1875 "/><path fill-rule="nonzero" fill="#000000" d="M 636.125 255.394531 L 595.867188 327.300781 L 508.277344 327.363281 L 519.410156 347.804688 L 607.550781 347.824219 L 648.109375 275.046875 Z M 636.125 255.394531 "/><path fill-rule="nonzero" fill="#000000" d="M 596.371094 367.9375 L 680.230469 367.925781 L 725.191406 442.523438 L 737.199219 422.226562 L 692.121094 347.824219 L 607.566406 347.824219 Z M 596.371094 367.9375 "/><path fill-rule="nonzero" fill="#000000" d="M 583.828125 281.929688 L 599.9375 310.699219 L 592.960938 322.429688 L 578.914062 322.246094 L 562.898438 293.652344 Z M 583.828125 281.929688 "/><path fill-rule="nonzero" fill="#000000" d="M 717.011719 286.253906 L 684.042969 286.226562 L 677.226562 274.402344 L 684.261719 262.242188 L 717.03125 262.265625 Z M 717.011719 286.253906 "/><path fill-rule="nonzero" fill="#000000" d="M 647.691406 401.796875 L 663.757812 373.003906 L 677.40625 372.804688 L 684.605469 384.863281 L 668.640625 413.484375 Z M 647.691406 401.796875 "/></g></g></svg>
